PathFileType	3	(X/Y/Z)	dance_move_1__view1_aligned.trc
DataRate	CameraRate	NumFrames	NumMarkers	Units	OrigDataRate	OrigDataStartFrame	OrigNumFrames
100.0	100.0	18	19	mm	100.0	594	890
Frame#	Time	pelvis			neck			head			hip_left			hip_right			knee_left			knee_right			ankle_left			ankle_right			heel_left			heel_right			toe_left			toe_right			shoulder_left			shoulder_right			elbow_left			elbow_right			wrist_left			wrist_right			
		X1	Y1	Z1	X2	Y2	Z2	X3	Y3	Z3	X4	Y4	Z4	X5	Y5	Z5	X6	Y6	Z6	X7	Y7	Z7	X8	Y8	Z8	X9	Y9	Z9	X10	Y10	Z10	X11	Y11	Z11	X12	Y12	Z12	X13	Y13	Z13	X14	Y14	Z14	X15	Y15	Z15	X16	Y16	Z16	X17	Y17	Z17	X18	Y18	Z18	X19	Y19	Z19	
594	5.93000	141.243692	748.632874	86.200399	99.459461	1210.603808	-210.281964	94.969719	1243.107610	-372.136324	58.254865	748.646305	93.148691	224.232588	748.619444	79.252040	-156.221700	520.443080	-177.171611	352.266883	475.696707	-204.617304	-66.962142	186.181798	2.559820	285.003988	126.858725	-45.094541	-41.263375	146.617990	37.687250	272.008358	88.306677	-2.560465	-175.756642	123.838118	-135.846144	290.535916	50.402142	-220.291176	-79.105152	1178.201548	-158.726304	281.502440	1171.738050	-174.447221	-187.111446	914.457501	-144.406271	382.653968	903.809420	-203.348624	-160.962493	694.892412	-276.356785	467.794511	669.315902	-300.051910
595	5.94000	142.044661	749.055972	85.289031	100.194331	1211.043711	-211.397917	95.608858	1243.536498	-373.224243	58.977824	749.104971	92.234512	225.111553	749.006972	78.343502	-156.627521	521.336637	-177.721101	353.918514	475.626484	-204.959041	-65.653510	186.643146	0.948552	285.390445	126.728710	-45.530287	-39.645065	147.018399	35.895776	272.162874	88.135126	-3.019624	-175.100669	124.369303	-137.123307	291.079201	50.478068	-220.780615	-78.209515	1178.917960	-159.761949	282.072352	1172.328985	-175.080212	-187.881255	915.380617	-145.879694	384.749324	904.496274	-203.634878	-163.818301	695.190083	-278.481424	472.484870	669.473996	-300.607217
596	5.95000	142.845631	749.479069	84.377664	100.929201	1211.483614	-212.513870	96.247998	1243.965385	-374.312162	59.700783	749.563638	91.320334	225.990519	749.394500	77.434965	-157.033343	522.230194	-178.270592	355.570145	475.556261	-205.300779	-64.344877	187.104494	-0.662717	285.776903	126.598696	-45.966034	-38.026756	147.418808	34.104303	272.317390	87.963575	-3.478784	-174.444696	124.900489	-138.400469	291.622487	50.553995	-221.270055	-77.313879	1179.634372	-160.797593	282.642263	1172.919919	-175.713202	-188.651063	916.303734	-147.353117	386.844680	905.183128	-203.921132	-166.674109	695.487755	-280.606064	477.175230	669.632091	-301.162523
597	5.96000	143.646600	749.902166	83.466296	101.664072	1211.923517	-213.629822	96.887137	1244.394273	-375.400081	60.423741	750.022304	90.406155	226.869484	749.782028	76.526428	-157.439164	523.123752	-178.820083	357.221776	475.486038	-205.642516	-63.036245	187.565842	-2.273986	286.163361	126.468681	-46.401781	-36.408447	147.819218	32.312829	272.471906	87.792023	-3.937944	-173.788722	125.431675	-139.677631	292.165773	50.629922	-221.759494	-76.418243	1180.350784	-161.833237	283.212175	1173.510854	-176.346193	-189.420872	917.226850	-148.826541	388.940036	905.869982	-204.207385	-169.529917	695.785427	-282.730703	481.865589	669.790186	-301.717830
598	5.97000	144.447569	750.325263	82.554928	102.398942	1212.363420	-214.745775	97.526277	1244.823161	-376.488000	61.146700	750.480971	89.491976	227.748449	750.169557	75.617891	-157.844986	524.017309	-179.369574	358.873408	475.415815	-205.984254	-61.727612	188.027190	-3.885254	286.549818	126.338666	-46.837527	-34.790137	148.219627	30.521355	272.626421	87.620472	-4.397103	-173.132749	125.962860	-140.954793	292.709059	50.705849	-222.248933	-75.522606	1181.067196	-162.868882	283.782086	1174.101788	-176.979183	-190.190680	918.149966	-150.299964	391.035392	906.556836	-204.493639	-172.385725	696.083099	-284.855342	486.555949	669.948280	-302.273136
599	5.98000	143.426068	749.982664	83.817372	101.178205	1212.535826	-212.849121	96.184661	1245.181992	-374.641887	60.345057	750.181811	90.967314	226.507087	749.783519	76.667438	-158.008852	523.489539	-178.162059	354.972615	475.309851	-205.559760	-63.057815	187.504170	-2.376875	285.320724	126.431843	-46.230271	-36.308993	147.692795	32.116056	271.833021	87.785863	-3.743507	-174.448359	125.566178	-139.463500	291.467027	50.569026	-221.477667	-76.807571	1180.679182	-161.070281	282.577546	1174.096508	-175.414655	-188.855399	917.722099	-149.662956	387.663322	906.612157	-203.602731	-170.094745	695.878524	-283.757189	480.446912	670.858893	-301.592844
600	5.99000	142.404566	749.640066	85.079815	99.957469	1212.708233	-210.952467	94.843044	1245.540823	-372.795775	59.543413	749.882651	92.442653	225.265725	749.397480	77.716984	-158.172717	522.961769	-176.954544	351.071823	475.203887	-205.135266	-64.388017	186.981149	-0.868496	284.091630	126.525020	-45.623015	-37.827848	147.165964	33.710757	271.039620	87.951253	-3.089911	-175.763969	125.169496	-137.972207	290.224994	50.432203	-220.706401	-78.092535	1180.291167	-159.271680	281.373006	1174.091228	-173.850127	-187.520118	917.294232	-149.025948	384.291252	906.667477	-202.711824	-167.803766	695.673948	-282.659035	474.337875	671.769505	-300.912552
601	6.00000	141.383064	749.297467	86.342259	98.736733	1212.880640	-209.055813	93.501428	1245.899654	-370.949663	58.741770	749.583491	93.917991	224.024363	749.011442	78.766531	-158.336583	522.434000	-175.747029	347.171031	475.097922	-204.710772	-65.718219	186.458129	0.639884	282.862536	126.618197	-45.015759	-39.346703	146.639132	35.305457	270.246220	88.116644	-2.436314	-177.079579	124.772814	-136.480914	288.982962	50.295381	-219.935134	-79.377500	1179.903153	-157.473079	280.168465	1174.085948	-172.285600	-186.184837	916.866365	-148.388940	380.919181	906.722798	-201.820917	-165.512786	695.469373	-281.560881	468.228839	672.680118	-300.232260
602	6.01000	140.361562	748.954868	87.604702	97.515997	1213.053047	-207.159159	92.159811	1246.258485	-369.103550	57.940127	749.284331	95.393329	222.783000	748.625404	79.816077	-158.500448	521.906230	-174.539515	343.270238	474.991958	-204.286278	-67.048422	185.935108	2.148263	281.633442	126.711374	-44.408504	-40.865559	146.112301	36.900158	269.452819	88.282034	-1.782718	-178.395189	124.376132	-134.989622	287.740929	50.158558	-219.163868	-80.662465	1179.515138	-155.674479	278.963925	1174.080668	-170.721072	-184.849556	916.438498	-147.751932	377.547111	906.778119	-200.930009	-163.221806	695.264798	-280.462728	462.119802	673.590730	-299.551968
603	6.02000	139.340061	748.612269	88.867146	96.295261	1213.225454	-205.262505	90.818195	1246.617316	-367.257438	57.138483	748.985171	96.868667	221.541638	748.239366	80.865624	-158.664314	521.378461	-173.332000	339.369446	474.885994	-203.861783	-68.378624	185.412088	3.656642	280.404348	126.804551	-43.801248	-42.384414	145.585469	38.494859	268.659419	88.447425	-1.129121	-179.710799	123.979450	-133.498329	286.498897	50.021736	-218.392602	-81.947429	1179.127124	-153.875878	277.759384	1174.075387	-169.156544	-183.514275	916.010630	-147.114924	374.175041	906.833439	-200.039102	-160.930826	695.060223	-279.364574	456.010765	674.501342	-298.871676
604	6.03000	138.318559	748.269670	90.129589	95.074525	1213.397861	-203.365850	89.476579	1246.976147	-365.411326	56.336840	748.686012	98.344005	220.300276	747.853328	81.915170	-158.828180	520.850691	-172.124485	335.468654	474.780030	-203.437289	-69.708826	184.889067	5.165022	279.175254	126.897728	-43.193992	-43.903270	145.058638	40.089560	267.866018	88.612816	-0.475525	-181.026410	123.582768	-132.007036	285.256865	49.884913	-217.621335	-83.232394	1178.739110	-152.077277	276.554844	1174.070107	-167.592016	-182.178994	915.582763	-146.477917	370.802971	906.888760	-199.148195	-158.639846	694.855648	-278.266420	449.901728	675.411955	-298.191383
605	6.04000	137.297057	747.927071	91.392032	93.853789	1213.570267	-201.469196	88.134962	1247.334978	-363.565213	55.535197	748.386852	99.819344	219.058913	747.467290	82.964717	-158.992045	520.322921	-170.916970	331.567861	474.674066	-203.012795	-71.039029	184.366047	6.673401	277.946160	126.990905	-42.586736	-45.422125	144.531806	41.684261	267.072618	88.778206	0.178072	-182.342020	123.186085	-130.515743	284.014832	49.748090	-216.850069	-84.517358	1178.351095	-150.278676	275.350304	1174.064827	-166.027488	-180.843713	915.154896	-145.840909	367.430900	906.944081	-198.257287	-156.348867	694.651073	-277.168267	443.792691	676.322567	-297.511091
606	6.05000	136.275555	747.584472	92.654476	92.633052	1213.742674	-199.572542	86.793346	1247.693809	-361.719101	54.733553	748.087692	101.294682	217.817551	747.081252	84.014264	-159.155911	519.795152	-169.709456	327.667069	474.568102	-202.588301	-72.369231	183.843026	8.181780	276.717066	127.084082	-41.979480	-46.940980	144.004974	43.278961	266.279217	88.943597	0.831668	-183.657630	122.789403	-129.024451	282.772800	49.611268	-216.078803	-85.802323	1177.963081	-148.480076	274.145763	1174.059547	-164.462961	-179.508432	914.727029	-145.203901	364.058830	906.999401	-197.366380	-154.057887	694.446498	-276.070113	437.683654	677.233180	-296.830799
607	6.06000	135.254054	747.241873	93.916919	91.412316	1213.915081	-197.675888	85.451730	1248.052640	-359.872989	53.931910	747.788532	102.770020	216.576189	746.695214	85.063810	-159.319777	519.267382	-168.501941	323.766277	474.462138	-202.163807	-73.699433	183.320005	9.690160	275.487972	127.177258	-41.372224	-48.459836	143.478143	44.873662	265.485817	89.108987	1.485264	-184.973240	122.392721	-127.533158	281.530767	49.474445	-215.307536	-87.087287	1177.575066	-146.681475	272.941223	1174.054267	-162.898433	-178.173152	914.299162	-144.566893	360.686760	907.054722	-196.475472	-151.766907	694.241923	-274.971960	431.574618	678.143792	-296.150507
608	6.07000	134.232552	746.899274	95.179363	90.191580	1214.087488	-195.779234	84.110113	1248.411472	-358.026876	53.130267	747.489372	104.245358	215.334826	746.309176	86.113357	-159.483642	518.739612	-167.294426	319.865484	474.356174	-201.739313	-75.029635	182.796985	11.198539	274.258877	127.270435	-40.764968	-49.978691	142.951311	46.468363	264.692416	89.274378	2.138861	-186.288850	121.996039	-126.041865	280.288735	49.337622	-214.536270	-88.372252	1177.187052	-144.882874	271.736683	1174.048986	-161.333905	-176.837871	913.871295	-143.929885	357.314690	907.110042	-195.584565	-149.475927	694.037347	-273.873806	425.465581	679.054404	-295.470215
609	6.08000	132.628004	746.108665	97.199655	89.168130	1213.514137	-193.081996	82.962650	1248.403752	-355.305205	51.807044	746.819827	106.380247	213.448955	745.397503	88.019054	-157.988729	517.329642	-166.795194	313.385475	474.260070	-201.780977	-76.709841	181.758459	13.445877	272.341691	127.468194	-39.752285	-52.267906	141.952082	49.048637	263.547245	89.606092	3.316739	-186.969456	121.185290	-124.346614	278.101291	48.928927	-213.145219	-89.362239	1175.649634	-143.023110	270.729151	1173.395163	-159.002583	-172.175511	912.109306	-144.148781	351.875501	906.217939	-195.210667	-142.765851	691.771047	-272.539255	413.991167	679.556814	-296.671742
610	6.09000	131.023456	745.318056	99.219947	88.144680	1212.940785	-190.384758	81.815186	1248.396033	-352.583534	50.483822	746.150281	108.515137	211.563083	744.485830	89.924752	-156.493815	515.919672	-166.295962	306.905465	474.163967	-201.822640	-78.390047	180.719934	15.693215	270.424505	127.665952	-38.739601	-54.557121	140.952853	51.628912	262.402075	89.937806	4.494616	-187.650062	120.374540	-122.651363	275.913846	48.520232	-211.754168	-90.352227	1174.112217	-141.163346	269.721619	1172.741340	-156.671261	-167.513151	910.347317	-144.367678	346.436312	905.325836	-194.836769	-136.055775	689.504747	-271.204704	402.516754	680.059224	-297.873270
611	6.10000	129.418908	744.527447	101.240240	87.121230	1212.367434	-187.687520	80.667723	1248.388314	-349.861863	49.160599	745.480735	110.650026	209.677212	743.574157	91.830449	-154.998901	514.509702	-165.796729	300.425455	474.067863	-201.864304	-80.070253	179.681408	17.940552	268.507318	127.863710	-37.726918	-56.846336	139.953624	54.209186	261.256904	90.269520	5.672494	-188.330667	119.563791	-120.956111	273.726402	48.111537	-210.363117	-91.342214	1172.574799	-139.303582	268.714087	1172.087517	-154.339939	-162.850792	908.585328	-144.586574	340.997122	904.433733	-194.462871	-129.345700	687.238447	-269.870154	391.042341	680.561634	-299.074797
